<svg width="1149" height="1053" viewBox="0 0 1149 1053" fill="none" xmlns="http://www.w3.org/2000/svg">
<path d="M375.167 966.415C373.331 970.705 369.897 977.307 364.866 986.219C360.287 995.021 354.974 1003.76 348.925 1012.44C342.987 1021.58 336.772 1029.58 330.281 1036.44C323.447 1043.87 317.536 1048.2 312.549 1049.41C308.922 1050.3 305.643 1049.66 302.713 1047.49C299.329 1045.43 297.195 1042.59 296.31 1038.96C295.205 1034.43 296.029 1028.95 298.782 1022.51C305.672 1005.46 314.474 990.343 325.19 977.162C335.341 963.638 345.72 950.059 356.325 936.425C366.708 921.884 374.759 909.593 380.476 899.553C386.647 889.402 390.954 878.504 393.398 866.86C390.667 869.448 386.968 872.992 382.301 877.492C377.977 881.429 373.2 885.476 367.97 889.634C362.739 893.791 357.453 897.722 352.112 901.427C347.114 904.567 342.801 906.579 339.174 907.464C331.92 909.233 325.529 908.63 320 905.655C314.924 902.57 311.613 897.854 310.065 891.506C307.964 882.892 309.772 873.565 315.489 863.524C317.314 861.158 319.139 858.792 320.963 856.425C322.788 854.059 324.27 852.257 325.409 851.018C328.715 846.849 331.281 843.582 333.105 841.215C335.273 838.285 338.623 836.267 343.157 835.161C344.971 834.719 346.613 834.559 348.083 834.681C350.008 834.692 351.246 835.831 351.799 838.098C352.683 841.725 351.694 846.529 348.829 852.512C346.419 858.383 344.19 862.049 342.145 863.509C338.96 866.207 336.168 869.529 333.768 873.477C331.368 877.425 330.047 880.869 329.803 883.811C329.56 886.752 329.776 888.621 330.45 889.417C331.468 889.649 332.43 889.655 333.336 889.434C337.87 888.328 343.83 885.193 351.217 880.029C358.947 874.302 366.566 868.12 374.075 861.486C381.472 854.398 388.19 847.476 394.228 840.719C400.609 833.399 405.115 827.257 407.747 822.292C408.433 821.164 409.118 820.036 409.804 818.908C410.489 817.78 411.512 817.05 412.872 816.719C415.139 816.166 417.456 816.802 419.822 818.626C422.642 820.34 424.273 822.104 424.715 823.918C425.047 825.278 424.466 827.821 422.974 831.548C421.37 834.821 419.59 839.338 417.632 845.099C416.018 850.296 414.63 855.438 413.469 860.525C412.65 865.047 411.605 869.625 410.333 874.259C409.061 878.892 407.79 883.525 406.518 888.158C408.906 886.135 411.693 883.774 414.878 881.076C418.516 878.267 421.358 876.133 423.404 874.674C427.838 871.19 435.568 865.463 446.593 857.49C457.618 849.518 470.003 841.213 483.748 832.577C497.383 823.488 511.919 815.14 527.356 807.532C542.682 799.471 556.92 793.838 570.068 790.631C572.788 789.968 576.525 789.537 581.28 789.338C585.925 788.686 590.453 788.542 594.865 788.907C599.731 789.161 604.082 790.262 607.919 792.208C612.099 793.59 614.631 796.095 615.516 799.722C616.179 802.442 614.47 804.3 610.39 805.295C605.292 806.058 600.311 806.312 595.445 806.058C590.58 805.803 585.371 806.113 579.82 806.986C577.553 807.539 575.513 808.037 573.7 808.479C571.776 808.468 569.907 808.683 568.093 809.126C541.344 815.649 516.264 827.049 492.854 843.326C469.444 859.603 447.278 876.056 426.356 892.687C424.31 894.147 420.047 897.348 413.567 902.291C407.54 907.123 401.63 911.446 395.835 915.261C390.306 931.981 383.416 949.032 375.167 966.415ZM359.608 955.799C353.46 962.102 347.649 968.803 342.175 975.902C336.701 983.001 331.852 989.707 327.628 996.021C323.514 1002.79 320.196 1008.88 317.675 1014.3C315.154 1019.72 313.434 1023.5 312.516 1025.65C315.922 1023.85 320.246 1019.92 325.488 1013.84C330.386 1008.32 335.064 1001.89 339.521 994.562C344.541 987.573 348.826 980.524 352.376 973.414C356.379 966.193 358.79 960.321 359.608 955.799Z" fill="white"/>
<path d="M653.176 877.121C649.082 883.17 644.391 887.681 639.102 890.654C631.78 894.771 622.578 894.59 611.495 890.114C607.047 888.867 603.806 888.815 601.772 889.959C600.551 890.645 599.445 891.534 598.454 892.627C597.869 893.491 596.991 894.787 595.822 896.516C592.948 901.879 589.87 907.356 586.59 912.948C583.309 918.54 579.8 923.725 576.062 928.503C573.9 931.324 571.713 933.624 569.501 935.403C567.696 936.953 565.776 938.3 563.742 939.444C556.42 943.56 549.238 944.117 542.198 941.116C535.564 937.886 530.303 932.813 526.415 925.898C521.841 917.762 519.505 908.368 519.406 897.717C520.881 893.675 523.031 888.452 525.854 882.046C528.449 875.234 531.373 870.913 534.628 869.084C536.662 867.94 539.064 867.928 541.834 869.047C544.783 869.531 546.829 870.79 547.973 872.824C549.573 875.672 550.043 878.887 549.381 882.472C548.719 886.056 548.057 889.64 547.396 893.224C546.734 896.808 545.576 900.939 543.922 905.616C542.447 909.658 542.51 913.102 544.111 915.95C545.254 917.984 546.982 919.153 549.296 919.459C551.609 919.765 553.782 919.346 555.816 918.202C558.664 916.602 562.338 912.662 566.839 906.384C571.747 899.878 576.63 892.85 581.487 885.301C586.522 877.117 591.062 869.479 595.106 862.388C598.921 854.89 601.388 849.755 602.507 846.985C603.448 844.85 605.356 841.1 608.23 835.737C611.104 830.374 613.558 827.121 615.591 825.978C617.219 825.063 619.507 824.847 622.455 825.331C625.404 825.815 627.45 827.074 628.594 829.108C629.28 830.328 629.495 832.616 629.24 835.971C629.493 841.183 628.361 845.834 625.843 849.927C623.325 854.019 621.354 858.607 619.929 863.691C620.03 865.775 620.309 867.224 620.767 868.038C623.054 872.106 626.434 872.882 630.909 870.366L632.74 869.337C640.139 862.501 644.869 856.63 646.929 851.724C648.989 846.818 651.863 841.455 655.551 835.635C657.484 832.407 659.874 829.992 662.721 828.392C666.382 826.333 669.013 826.728 670.614 829.576C671.529 831.203 671.477 834.444 670.459 839.299C669.213 843.748 667.47 848.742 665.231 854.284C663.171 859.189 660.996 863.892 658.707 868.391C656.418 872.889 654.575 875.8 653.176 877.121Z" fill="white"/>
<path d="M880.75 744.515C876.242 747.902 870.619 752.73 863.881 759.001C857.599 765.17 850.129 769.212 841.472 771.127C836.459 772.236 830.689 772.079 824.161 770.655C818.088 769.131 811.689 765.05 804.963 758.413C796.568 750.711 789.689 745.542 784.326 742.904C778.963 740.267 774.51 739.58 770.965 740.842C765.598 742.507 760.887 747.134 756.83 754.723C752.773 762.311 747.146 771.442 739.948 782.116C736.908 785.656 733.565 787.829 729.92 788.636C725.364 789.644 722.632 788.097 721.724 783.997C720.817 779.896 721.987 774.38 725.233 767.448C726.551 764.767 727.059 762.742 726.757 761.376C726.354 759.553 725.241 758.843 723.418 759.246C716.584 760.758 710.481 764.498 705.11 770.466C699.638 775.978 695.406 781.694 692.414 787.613C690.942 791.762 689.547 795.178 688.228 797.859C686.909 800.541 685.313 803.045 683.438 805.371C681.917 807.141 680.018 808.278 677.74 808.782C675.006 809.387 672.704 808.702 670.833 806.726C668.861 804.294 667.573 801.712 666.968 798.978C666.061 794.877 666.091 789.613 667.059 783.185C667.571 776.859 668.817 770.609 670.797 764.435C673.233 758.161 676.098 752.748 679.392 748.195C682.586 743.187 686.461 740.179 691.017 739.171C695.118 738.264 699.445 739.458 703.997 742.752C705.666 743.817 707.412 744.147 709.235 743.744C711.513 743.24 714.096 741.952 716.983 739.879C720.225 737.25 724.124 735.432 728.681 734.424C733.237 733.416 737.818 733.597 742.423 734.968L743.79 734.666C748.802 733.557 753.613 731.537 758.222 728.606C762.83 725.674 767.869 723.604 773.337 722.394C778.349 721.285 783.891 721.493 789.964 723.017C795.936 724.086 802.968 727.788 811.061 734.123C819.052 740.002 825.452 744.082 830.258 746.365C834.964 748.192 839.595 748.601 844.151 747.593C849.164 746.484 854.228 743.452 859.345 738.496C864.918 733.44 872.112 727.069 880.926 719.384C885.789 715.44 889.36 713.216 891.638 712.712C894.372 712.107 896.041 713.172 896.646 715.906C897.251 718.64 896.057 722.966 893.065 728.886C890.428 734.249 886.323 739.458 880.75 744.515Z" fill="white"/>
<path d="M946.069 629.593C949.719 624.484 953.392 620.565 957.09 617.835C961.142 614.549 964.535 612.603 967.269 611.998C970.459 611.293 972.306 612.079 972.81 614.357C973.717 618.458 970.32 624.706 962.618 633.101C958.311 637.4 953.952 643.621 949.541 651.767C945.484 659.355 941.022 667.273 936.155 675.519C931.643 683.208 926.752 690.265 921.481 696.688C916.667 703.01 911.298 706.827 905.374 708.137C897.628 709.851 890.543 708.073 884.12 702.802C877.241 697.633 872.995 691.403 871.382 684.112C870.576 680.467 870.961 674.647 872.538 666.651C873.558 658.3 875.312 650.026 877.8 641.828C880.188 633.175 883.283 625.56 887.085 618.983C890.787 611.951 894.688 607.981 898.789 607.074C901.979 606.368 904.61 607.459 906.682 610.346C909.11 612.677 910.726 615.665 911.533 619.31C912.742 624.778 912.206 629.915 909.924 634.722C908.859 636.391 907.085 639.173 904.601 643.068C902.472 646.407 900.393 649.974 898.365 653.768C896.337 657.562 894.536 661.306 892.963 665C891.846 668.592 891.49 671.3 891.893 673.123C892.498 675.857 893.963 678.161 896.29 680.036C899.072 681.81 901.602 682.446 903.881 681.942C906.159 681.438 907.83 680.351 908.895 678.682L946.069 629.593ZM922.42 587.508C920.142 588.012 917.612 587.377 914.83 585.602C912.503 583.727 911.088 581.651 910.584 579.372C909.777 575.727 910.489 572.463 912.719 569.58C914.848 566.241 917.735 564.169 921.381 563.362C924.57 562.657 928.645 562.711 933.604 563.526C938.463 563.885 941.296 565.887 942.102 569.532C941.796 572.467 939.262 576.135 934.499 580.534C930.092 584.377 926.066 586.701 922.42 587.508Z" fill="white"/>
<path d="M1126.77 469.583C1121.4 475.551 1116.61 483.063 1112.4 492.12C1108.55 500.62 1101.12 509.192 1090.13 517.837C1086.89 520.466 1082.99 522.285 1078.43 523.293C1071.6 524.805 1065.2 522.875 1059.23 517.504C1053.72 512.032 1048.99 506.865 1045.05 502.002C1041 496.683 1037.39 492.225 1034.2 488.629C1031.47 484.931 1028.49 482.245 1025.25 480.572C1021.91 478.443 1018.19 477.832 1014.09 478.739C1011.36 479.344 1008.55 480.683 1005.66 482.755C995.985 488.719 987.247 495.67 979.445 503.61C971.997 510.993 964.422 518.882 956.72 527.277C955.2 529.047 953.908 530.767 952.843 532.436C952.234 534.005 951.397 535.624 950.333 537.293C948.914 539.519 946.609 540.985 943.42 541.69C941.141 542.194 938.889 541.736 936.663 540.317C933.982 538.998 932.339 536.972 931.734 534.238C931.23 531.96 931.918 527.506 933.797 520.877C935.676 514.248 937.91 507.063 940.499 499.321C943.543 491.478 946.511 484.369 949.402 477.994C952.193 471.164 954.247 466.407 955.566 463.726C956.731 462.512 957.846 461.071 958.911 459.401C959.975 457.732 961.419 456.696 963.241 456.293C965.52 455.789 967.544 456.297 969.314 457.817C970.983 458.881 972.02 460.325 972.423 462.148C972.826 463.97 972.774 465.894 972.266 467.918C972.213 469.841 972.161 471.765 972.108 473.688C971.701 476.168 971.142 477.964 970.433 479.077C970.078 479.634 970.001 480.368 970.203 481.279C972.328 482.243 974.074 482.573 975.441 482.271C976.352 482.069 977.163 481.412 977.872 480.299C979.393 478.529 982.001 476.279 985.699 473.549C989.852 470.719 994.006 467.888 998.159 465.057C1002.67 461.67 1007.05 458.789 1011.3 456.414C1015.56 454.039 1019.05 452.549 1021.78 451.945C1029.07 450.332 1035.5 453.451 1041.06 461.302C1044.55 466.266 1048.31 471.407 1052.36 476.726C1056.3 481.589 1060.65 486.123 1065.41 490.329C1070.16 494.534 1074.59 496.184 1078.69 495.276C1080.51 494.873 1083.45 493.029 1087.5 489.742C1091.55 486.456 1095.76 481.702 1100.12 475.48C1104.93 469.158 1109.32 464.126 1113.27 460.384C1115.24 458.513 1117.09 457.148 1118.81 456.289C1120.99 455.329 1122.99 454.648 1124.81 454.245C1129.83 453.136 1132.68 454.176 1133.39 457.366C1133.99 460.1 1131.79 464.172 1126.77 469.583Z" fill="white"/>
<path d="M274.136 605.19C276.362 602.709 277.805 599.704 278.464 596.175C279.776 592.516 281.938 589.708 284.947 587.751C288.876 583.573 292.802 581.094 296.725 580.316C299.995 579.667 303.524 580.325 307.313 582.292C311.755 584.129 314.366 587.009 315.145 590.932C315.664 593.548 315.137 596.031 313.565 598.383C311.993 600.734 310.421 603.085 308.848 605.436C290.115 630.904 274.387 657.815 261.664 686.168C248.811 713.867 234.913 741.434 219.969 768.869C217.872 772.004 215.841 775.466 213.874 779.255C211.778 782.389 211.316 785.2 212.489 787.686C213.533 789.518 215.689 790.109 218.959 789.46C220.92 789.071 222.817 788.354 224.649 787.311C227.135 786.138 229.032 785.421 230.339 785.162C232.825 783.989 236.357 782.948 240.934 782.039C252.051 779.832 258.647 783.96 260.724 794.423C262.541 803.578 262.137 811.814 259.512 819.132C256.887 826.45 253.607 833.897 249.674 841.475C247.053 845.394 244.106 849.377 240.832 853.425C238.211 857.344 235.591 861.262 232.97 865.181C233.869 876.557 238.569 881.401 247.07 879.714C252.301 878.675 258.386 875.089 265.324 868.954C272.262 862.819 278.744 856.095 284.768 848.782C291.317 840.685 296.95 833.11 301.667 826.057C307.038 818.873 310.836 814.041 313.063 811.56C318.693 805.685 324.124 802.228 329.355 801.19C335.24 800.021 338.637 801.726 339.546 806.303C340.584 811.535 336.322 820.877 326.758 834.329L293.739 883.703C289.282 892.065 283.781 898.594 277.238 903.291C271.218 907.205 264.611 909.876 257.418 911.304C246.302 913.51 235.517 912.253 225.064 907.531C215.266 902.679 207.628 895.02 202.152 884.552C200.325 882.196 197.519 878.335 193.736 872.969C189.822 866.949 186.23 864.264 182.961 864.913C179.691 865.562 176.876 868.5 174.515 873.726C168.88 883.001 161.607 894.3 152.697 907.623C144.312 920.162 137.366 931.396 131.861 941.325C130.418 944.33 128.976 947.335 127.533 950.34C126.091 953.345 123.408 955.237 119.484 956.016C113.599 957.184 108.173 957.242 103.206 956.189C97.4558 954.611 94.0613 951.207 93.0229 945.976C92.5037 943.36 93.6866 939.047 96.5716 933.037C109.814 907.3 123.45 880.125 137.481 851.512C151.382 822.245 166.067 793.502 181.535 765.284C196.874 736.411 212.08 708.585 227.154 681.804C242.752 654.239 258.413 628.701 274.136 605.19ZM230.678 822.817C230.033 816.148 227.423 813.268 222.845 814.176C221.537 814.436 219.379 815.544 216.369 817.501C214.013 819.328 211.395 821.547 208.514 824.158C206.288 826.638 204.454 829.381 203.011 832.387C201.439 834.738 200.848 836.894 201.237 838.856C201.626 840.818 202.932 842.258 205.153 843.176C207.245 843.441 209.271 843.378 211.233 842.989C216.464 841.95 220.717 839.407 223.992 835.358C227.266 831.31 229.495 827.129 230.678 822.817Z" fill="white"/>
</svg>
